<mxfile host="app.diagrams.net" modified="2023-03-20T19:04:46.287Z" agent="5.0 (Windows)" etag="IvokjihfKTRLQdpEno_i" version="21.0.8" type="github">
  <diagram id="C5RBs43oDa-KdzZeNtuy" name="Page-1">
    <mxGraphModel dx="1434" dy="754" grid="0" gridSize="10" guides="1" tooltips="1" connect="1" arrows="1" fold="1" page="1" pageScale="1" pageWidth="827" pageHeight="1169" math="0" shadow="0">
      <root>
        <mxCell id="WIyWlLk6GJQsqaUBKTNV-0" />
        <mxCell id="WIyWlLk6GJQsqaUBKTNV-1" parent="WIyWlLk6GJQsqaUBKTNV-0" />
        <mxCell id="_X4PcI74t75V71Dqwnn3-6" value="" style="edgeStyle=orthogonalEdgeStyle;rounded=0;orthogonalLoop=1;jettySize=auto;html=1;entryX=0;entryY=0.5;entryDx=0;entryDy=0;" parent="WIyWlLk6GJQsqaUBKTNV-1" source="WIyWlLk6GJQsqaUBKTNV-6" target="x7gvPWtZi-XUU4ScJdFL-6" edge="1">
          <mxGeometry relative="1" as="geometry">
            <mxPoint x="581" y="423" as="targetPoint" />
          </mxGeometry>
        </mxCell>
        <mxCell id="_X4PcI74t75V71Dqwnn3-18" value="" style="edgeStyle=orthogonalEdgeStyle;rounded=0;orthogonalLoop=1;jettySize=auto;html=1;" parent="WIyWlLk6GJQsqaUBKTNV-1" source="WIyWlLk6GJQsqaUBKTNV-6" target="x7gvPWtZi-XUU4ScJdFL-5" edge="1">
          <mxGeometry relative="1" as="geometry">
            <mxPoint x="142" y="423" as="targetPoint" />
          </mxGeometry>
        </mxCell>
        <mxCell id="WIyWlLk6GJQsqaUBKTNV-6" value="O SCAN pode está gerando impacto?" style="rhombus;whiteSpace=wrap;html=1;shadow=0;fontFamily=Helvetica;fontSize=12;align=center;strokeWidth=1;spacing=6;spacingTop=-4;" parent="WIyWlLk6GJQsqaUBKTNV-1" vertex="1">
          <mxGeometry x="268" y="342" width="200" height="162" as="geometry" />
        </mxCell>
        <mxCell id="_X4PcI74t75V71Dqwnn3-10" value="" style="edgeStyle=orthogonalEdgeStyle;rounded=0;orthogonalLoop=1;jettySize=auto;html=1;entryX=0.5;entryY=0;entryDx=0;entryDy=0;" parent="WIyWlLk6GJQsqaUBKTNV-1" source="WIyWlLk6GJQsqaUBKTNV-7" target="x7gvPWtZi-XUU4ScJdFL-0" edge="1">
          <mxGeometry relative="1" as="geometry" />
        </mxCell>
        <mxCell id="WIyWlLk6GJQsqaUBKTNV-7" value="SCAN de REDE iniciado [00h00]" style="rounded=1;whiteSpace=wrap;html=1;fontSize=12;glass=0;strokeWidth=1;shadow=0;" parent="WIyWlLk6GJQsqaUBKTNV-1" vertex="1">
          <mxGeometry x="303" y="35" width="131" height="49" as="geometry" />
        </mxCell>
        <mxCell id="_X4PcI74t75V71Dqwnn3-21" value="" style="edgeStyle=orthogonalEdgeStyle;rounded=0;orthogonalLoop=1;jettySize=auto;html=1;" parent="WIyWlLk6GJQsqaUBKTNV-1" source="_X4PcI74t75V71Dqwnn3-2" target="_X4PcI74t75V71Dqwnn3-11" edge="1">
          <mxGeometry relative="1" as="geometry" />
        </mxCell>
        <mxCell id="_X4PcI74t75V71Dqwnn3-2" value="SCAN de REDE Finalizado [06h00]" style="rounded=1;whiteSpace=wrap;html=1;fontSize=12;glass=0;strokeWidth=1;shadow=0;fillColor=#008a00;fontColor=#ffffff;strokeColor=#005700;" parent="WIyWlLk6GJQsqaUBKTNV-1" vertex="1">
          <mxGeometry x="22" y="563" width="142" height="55" as="geometry" />
        </mxCell>
        <mxCell id="_X4PcI74t75V71Dqwnn3-11" value="&lt;div&gt;GMUD Concluída com Sucesso,&lt;/div&gt;" style="rounded=1;whiteSpace=wrap;html=1;fontSize=12;glass=0;strokeWidth=1;shadow=0;fillColor=#f5f5f5;gradientColor=#b3b3b3;strokeColor=#666666;" parent="WIyWlLk6GJQsqaUBKTNV-1" vertex="1">
          <mxGeometry x="314" y="662" width="153" height="61" as="geometry" />
        </mxCell>
        <mxCell id="x7gvPWtZi-XUU4ScJdFL-1" style="edgeStyle=orthogonalEdgeStyle;rounded=0;orthogonalLoop=1;jettySize=auto;html=1;exitX=0.5;exitY=1;exitDx=0;exitDy=0;" edge="1" parent="WIyWlLk6GJQsqaUBKTNV-1" source="x7gvPWtZi-XUU4ScJdFL-0" target="WIyWlLk6GJQsqaUBKTNV-6">
          <mxGeometry relative="1" as="geometry">
            <mxPoint x="366" y="378" as="targetPoint" />
          </mxGeometry>
        </mxCell>
        <mxCell id="x7gvPWtZi-XUU4ScJdFL-0" value="Acompanhamento da atividade [Monitoração + N1]" style="rounded=0;whiteSpace=wrap;html=1;" vertex="1" parent="WIyWlLk6GJQsqaUBKTNV-1">
          <mxGeometry x="284.5" y="177" width="167" height="60" as="geometry" />
        </mxCell>
        <mxCell id="x7gvPWtZi-XUU4ScJdFL-10" value="" style="edgeStyle=orthogonalEdgeStyle;rounded=0;orthogonalLoop=1;jettySize=auto;html=1;" edge="1" parent="WIyWlLk6GJQsqaUBKTNV-1" source="x7gvPWtZi-XUU4ScJdFL-5" target="_X4PcI74t75V71Dqwnn3-2">
          <mxGeometry relative="1" as="geometry" />
        </mxCell>
        <mxCell id="x7gvPWtZi-XUU4ScJdFL-5" value="O Impacto não ocorre no ambiente em GMUD" style="rounded=1;whiteSpace=wrap;html=1;" vertex="1" parent="WIyWlLk6GJQsqaUBKTNV-1">
          <mxGeometry x="22" y="393" width="142" height="60" as="geometry" />
        </mxCell>
        <mxCell id="x7gvPWtZi-XUU4ScJdFL-13" value="" style="edgeStyle=orthogonalEdgeStyle;rounded=0;orthogonalLoop=1;jettySize=auto;html=1;entryX=0.5;entryY=0;entryDx=0;entryDy=0;" edge="1" parent="WIyWlLk6GJQsqaUBKTNV-1" source="x7gvPWtZi-XUU4ScJdFL-6" target="x7gvPWtZi-XUU4ScJdFL-11">
          <mxGeometry relative="1" as="geometry">
            <mxPoint x="701.5" y="588" as="targetPoint" />
          </mxGeometry>
        </mxCell>
        <mxCell id="x7gvPWtZi-XUU4ScJdFL-6" value="&lt;div&gt;N1 - Check:&lt;/div&gt;&lt;ul&gt;&lt;li&gt;&amp;nbsp;A atividade do SCAN ocorre no ambiente com impacto?&lt;/li&gt;&lt;li&gt;Os equipamentos impactados estão nas Redes informadas em GMUD para SCAN?&lt;/li&gt;&lt;/ul&gt;" style="rounded=1;whiteSpace=wrap;html=1;" vertex="1" parent="WIyWlLk6GJQsqaUBKTNV-1">
          <mxGeometry x="525" y="365.5" width="353" height="115" as="geometry" />
        </mxCell>
        <mxCell id="x7gvPWtZi-XUU4ScJdFL-7" value="NÃO" style="text;html=1;align=center;verticalAlign=middle;resizable=0;points=[];autosize=1;strokeColor=none;fillColor=none;" vertex="1" parent="WIyWlLk6GJQsqaUBKTNV-1">
          <mxGeometry x="202" y="389" width="43" height="26" as="geometry" />
        </mxCell>
        <mxCell id="x7gvPWtZi-XUU4ScJdFL-8" value="SIM" style="text;html=1;align=center;verticalAlign=middle;resizable=0;points=[];autosize=1;strokeColor=none;fillColor=none;" vertex="1" parent="WIyWlLk6GJQsqaUBKTNV-1">
          <mxGeometry x="487" y="389" width="38" height="26" as="geometry" />
        </mxCell>
        <mxCell id="x7gvPWtZi-XUU4ScJdFL-11" value="Acionar N2 para Solicitar o STOP do SCAN" style="rounded=1;whiteSpace=wrap;html=1;fontSize=12;glass=0;strokeWidth=1;shadow=0;fillColor=#f5f5f5;gradientColor=#b3b3b3;strokeColor=#666666;" vertex="1" parent="WIyWlLk6GJQsqaUBKTNV-1">
          <mxGeometry x="625" y="662" width="153" height="61" as="geometry" />
        </mxCell>
      </root>
    </mxGraphModel>
  </diagram>
</mxfile>
